<?xml version="1.0" standalone="no"?><!DOCTYPE svg PUBLIC "-//W3C//DTD SVG 1.1//EN" "http://www.w3.org/Graphics/SVG/1.1/DTD/svg11.dtd"><svg stroke-width="1.25" id="Layer_1" data-name="Layer 1" viewBox="0 0 24 24" version="1.1" xmlns="http://www.w3.org/2000/svg" xmlns:xlink="http://www.w3.org/1999/xlink"><defs><style>.cls-p5elkin8cvt7zd4wm0vya-1{fill:none;stroke:#808080;stroke-miterlimit:10;;}</style></defs><path class="cls-p5elkin8cvt7zd4wm0vya-1" d="M19.64 18.68v3.82H6.27a1.92 1.92 0 0 1-1.91-1.91 1.93 1.93 0 0 1 1.91-1.91Z"/><path class="cls-p5elkin8cvt7zd4wm0vya-1" d="M19.64 1.5v17.18H6.27a1.93 1.93 0 0 0-1.91 1.91V3.41A1.92 1.92 0 0 1 6.27 1.5Z"/><line class="cls-p5elkin8cvt7zd4wm0vya-1" x1="12" y1="5.32" x2="12" y2="14.86"/><line class="cls-p5elkin8cvt7zd4wm0vya-1" x1="16.77" y1="10.09" x2="7.23" y2="10.09"/><line class="cls-p5elkin8cvt7zd4wm0vya-1" x1="8.18" y1="7.23" x2="10.09" y2="7.23"/><line class="cls-p5elkin8cvt7zd4wm0vya-1" x1="8.18" y1="12.95" x2="10.09" y2="12.95"/><line class="cls-p5elkin8cvt7zd4wm0vya-1" x1="13.91" y1="7.23" x2="15.82" y2="7.23"/><line class="cls-p5elkin8cvt7zd4wm0vya-1" x1="13.91" y1="12.95" x2="15.82" y2="12.95"/></svg>